<svg width="64" height="64" viewBox="0 0 64 64" fill="none" xmlns="http://www.w3.org/2000/svg" role="img" aria-labelledby="title desc">
  <title id="title">Supabase Turkiye Community</title>
  <desc id="desc">Community mark for the Supabase Turkiye self-hosting project.</desc>
  <rect width="64" height="64" rx="16" fill="#08130F"/>
  <rect x="1" y="1" width="62" height="62" rx="15" stroke="#1F3A31" stroke-width="2"/>
  <path d="M37.6 7.5 15.4 36.5c-1.1 1.5 0 3.6 1.9 3.6h11.9l-2.8 16.1c-.4 2.4 2.7 3.7 4.1 1.7l22.1-30.4c1.1-1.5 0-3.6-1.9-3.6H38.9l2.7-14.7c.4-2.3-2.6-3.6-4-1.7Z" fill="url(#bolt)"/>
  <path d="M46.5 17.3c-4.8-2.2-10.7-.5-13.5 4.1-3.1 5.1-1.4 11.8 3.7 14.9 4.4 2.7 10.1 2 13.7-1.5-4 1.2-8.5.7-12.2-1.6-5.3-3.2-7-10.1-3.8-15.4 2.5-4.1 7.2-6.2 12.1-5.5Z" fill="#E11D48" opacity=".95"/>
  <path d="m49.8 24.2 1.1 2.5 2.7.3-2 1.8.6 2.7-2.4-1.4-2.3 1.4.6-2.7-2-1.8 2.7-.3 1-2.5Z" fill="#F8FAFC"/>
  <path d="M17.5 43.3h23.7M20.7 48.1h16.8M24 52.9h10.4" stroke="#34D399" stroke-width="2" stroke-linecap="round" opacity=".7"/>
  <defs>
    <linearGradient id="bolt" x1="17" y1="8" x2="48" y2="55" gradientUnits="userSpaceOnUse">
      <stop stop-color="#6EE7B7"/>
      <stop offset="1" stop-color="#10B981"/>
    </linearGradient>
  </defs>
</svg>
